<?xml version="1.0" encoding="UTF-8" standalone="no"?>
<svg
   width="24"
   height="24"
   fill="none"
   stroke="currentColor"
   stroke-linecap="round"
   stroke-linejoin="round"
   stroke-width="1.8"
   data-attribution="cc0-icons"
   viewBox="0 0 24 24"
   version="1.1"
   id="svg1"
   sodipodi:docname="Lock.svg"
   inkscape:export-filename="Lock.png"
   inkscape:export-xdpi="160"
   inkscape:export-ydpi="160"
   inkscape:version="1.3.2 (091e20e, 2023-11-25, custom)"
   xmlns:inkscape="http://www.inkscape.org/namespaces/inkscape"
   xmlns:sodipodi="http://sodipodi.sourceforge.net/DTD/sodipodi-0.dtd"
   xmlns="http://www.w3.org/2000/svg"
   xmlns:svg="http://www.w3.org/2000/svg">
  <defs
     id="defs1" />
  <sodipodi:namedview
     id="namedview1"
     pagecolor="#ffffff"
     bordercolor="#666666"
     borderopacity="1.0"
     inkscape:showpageshadow="2"
     inkscape:pageopacity="0.0"
     inkscape:pagecheckerboard="0"
     inkscape:deskcolor="#d1d1d1"
     inkscape:export-bgcolor="#00000000"
     inkscape:zoom="34.208333"
     inkscape:cx="8.0682095"
     inkscape:cy="12"
     inkscape:window-width="1920"
     inkscape:window-height="1017"
     inkscape:window-x="1912"
     inkscape:window-y="-8"
     inkscape:window-maximized="1"
     inkscape:current-layer="svg1" />
  <path
     d="M19 11H5a2 2 0 0 0-2 2v7a2 2 0 0 0 2 2h14a2 2 0 0 0 2-2v-7a2 2 0 0 0-2-2Zm-4-1V5a3 3 0 0 0-6 0v5"
     id="path1"
     style="fill:none" />
  <path
     style="fill:#ffffff;stroke-width:0.0526188"
     d="M 4.4433618,22.830631 C 3.4219253,22.624106 2.5700701,21.866746 2.2569142,20.886724 2.1150948,20.442899 2.1193666,20.57908 2.1193666,16.501827 c 0,-4.077188 -0.00427,-3.941005 0.1375312,-4.384896 0.290773,-0.910222 1.0545229,-1.641888 1.9818355,-1.898584 0.3511332,-0.0972 0.7680973,-0.117953 2.3751522,-0.118219 l 1.5127893,-2.5e-4 V 7.3558389 c 0,-2.3394875 0.00664,-2.7823141 0.045037,-3.0036541 C 8.3130227,3.5376004 8.6704186,2.8533547 9.262997,2.2628844 9.8037176,1.7240876 10.362273,1.4071647 11.100396,1.2203498 11.391352,1.1467105 11.45989,1.1406374 12,1.1406374 c 0.54011,0 0.608648,0.00607 0.899604,0.079712 0.76359,0.1932606 1.371101,0.5468088 1.909705,1.1113753 0.540662,0.5667239 0.88717,1.2507329 1.016796,2.0071656 0.04118,0.2402961 0.04722,0.6264819 0.04722,3.0182704 v 2.7427173 l 1.512789,2.5e-4 c 2.061115,3.41e-4 2.281536,0.02482 2.886724,0.320604 0.808447,0.395123 1.364316,1.125339 1.56938,2.061607 0.03066,0.13997 0.03842,0.957713 0.03842,4.048721 v 3.873325 l -0.08042,0.292326 c -0.309012,1.123299 -1.159441,1.924491 -2.268074,2.13676 -0.308275,0.05903 -14.7962917,0.0563 -15.0887802,-0.0028 z M 19.199692,21.092519 c 0.348921,-0.06617 0.647268,-0.293034 0.802393,-0.610138 l 0.09536,-0.194927 v -3.786242 -3.786241 l -0.09571,-0.194417 C 19.883174,12.27973 19.652188,12.060219 19.417686,11.965523 l -0.167991,-0.06784 H 12 4.7503045 l -0.16799,0.06784 c -0.234503,0.0947 -0.4654882,0.314207 -0.5840457,0.555031 l -0.095711,0.194417 v 3.786241 3.786242 l 0.095357,0.194927 c 0.1497332,0.306082 0.454074,0.543674 0.7789062,0.608076 0.1744917,0.0346 14.24072,0.03661 14.422871,0.0021 z M 14.112382,7.3739342 c -0.01005,-3.049487 0.0039,-2.844454 -0.225762,-3.3105968 -0.272799,-0.5536268 -0.766707,-0.9544297 -1.375049,-1.1158427 -0.256016,-0.067929 -0.767126,-0.067929 -1.023142,0 -0.608342,0.161413 -1.10225,0.5622159 -1.375049,1.1158427 C 9.8836885,4.5294802 9.8976705,4.3244472 9.8876179,7.3739342 l -0.00899,2.7259438 H 12 14.121368 Z"
     id="path2" />
</svg>
